<?xml version="1.0" encoding="utf-8"?>
<!-- Generator: Adobe Illustrator 24.3.0, SVG Export Plug-In . SVG Version: 6.00 Build 0)  -->
<svg version="1.1" id="Layer_1" xmlns="http://www.w3.org/2000/svg" xmlns:xlink="http://www.w3.org/1999/xlink" x="0px" y="0px"
	 viewBox="0 0 125 125" style="enable-background:new 0 0 125 125;" xml:space="preserve">
<style type="text/css">
	.st0{fill:#E3EAEC;}
	.st1{fill:#45515B;}
	.st2{fill:#1080D0;}
</style>
<g>
	<path class="st0" d="M101.1,116.1H25.9V39.2h75.2V116.1z M27.9,114.1h71.2V41.2H27.9V114.1z"/>
	<polygon class="st0" points="59.5,89.2 47.8,77.5 49.2,76.1 60.2,87 81.1,66.1 82.5,67.5 60.9,89.2 	"/>
	<path class="st0" d="M81.1,50.2h-2V28.6c0-8.6-7-15.6-15.6-15.6c-8.6,0-15.6,7-15.6,15.6v21.6h-2V28.6c0-9.7,7.9-17.6,17.6-17.6
		s17.6,7.9,17.6,17.6V50.2z"/>
</g>
<path class="st1" d="M99.1,113.9H23.9V37.1h75.2V113.9z M25.9,111.9h71.2V39.1H25.9V111.9z"/>
<polygon class="st2" points="57.5,87 45.8,75.4 47.2,73.9 58.2,84.9 79.1,64 80.5,65.4 58.9,87 "/>
<path class="st1" d="M79.1,48h-2V26.4c0-8.6-7-15.6-15.6-15.6c-8.6,0-15.6,7-15.6,15.6V48h-2V26.4c0-9.7,7.9-17.6,17.6-17.6
	s17.6,7.9,17.6,17.6V48z"/>
</svg>
