<?xml version="1.0" encoding="utf-8"?>
<!-- Generator: Adobe Illustrator 21.0.0, SVG Export Plug-In . SVG Version: 6.00 Build 0)  -->
<svg version="1.1" id="Layer_1" xmlns="http://www.w3.org/2000/svg" xmlns:xlink="http://www.w3.org/1999/xlink" x="0px" y="0px"
	 viewBox="0 0 125 125" style="enable-background:new 0 0 125 125;" xml:space="preserve">
<style type="text/css">
	.st0{fill:#E3EAEC;}
	.st1{fill:#1080D0;}
	.st2{fill:#45515B;}
</style>
<path class="st0" d="M110.9,89.2c-0.4,0-0.8-0.3-0.8-0.7l-0.9-3.6c-0.3-1.2-1.2-2.2-2.4-2.6l-6.7-2.2c-2.7-1.1-3.6-3.1-3.6-4.2
	c0-0.3,0.1-0.5,0.3-0.7c0.9-0.8,1.9-2.1,1.9-3.1c0-1.2,0.5-1.8,0.9-2.1c0.2-0.5,0.5-1.5,0.6-2.3c0,0,0,0,0,0
	c-0.4-0.1-0.7-0.4-0.7-0.9v-4.5c0-2.1-0.7-2.6-1-2.8c-0.2-0.1-0.5-0.3-0.6-0.8c0-0.1,0-0.2,0-0.3c-0.2-0.7-1.2-2-4.4-2
	c-3.9,0-5.9,3.8-5.9,5.9v4.5c0,0.4-0.3,0.8-0.7,0.9c0,0,0,0,0,0c0,0.7,0.4,1.8,0.6,2.3c0.4,0.3,0.9,0.9,0.9,2.1c0,1,1,2.3,1.9,3.1
	c0.2,0.2,0.3,0.4,0.3,0.7c0,1.1-0.9,3.1-3.6,4.2L84.3,81l-0.2-0.1c-0.2-0.1-0.3-0.2-0.4-0.3c-0.1-0.1-0.3-0.1-0.4-0.2l-1.2-0.5
	l4.5-1.5c1.5-0.6,2.1-1.6,2.3-2.2c-1.1-1-2.2-2.6-2.2-4.1c0-0.5-0.1-0.7-0.2-0.7c-0.2-0.1-0.4-0.3-0.5-0.5c-0.1-0.3-0.8-2.1-0.8-3.3
	c0-0.1,0-0.1,0-0.2c0.1-0.4,0.3-0.8,0.7-1.1v-3.9c0-3.2,2.9-7.7,7.7-7.7c4.2,0,5.9,2.1,6.1,3.6c0.7,0.5,1.5,1.5,1.5,4.1v3.9
	c0.4,0.3,0.6,0.8,0.7,1.1c0,0.1,0,0.1,0,0.2c0,1.3-0.7,3.1-0.8,3.3c-0.1,0.2-0.3,0.4-0.5,0.5c0,0-0.2,0.2-0.2,0.7
	c0,1.5-1.1,3.1-2.2,4.1c0.2,0.6,0.9,1.6,2.4,2.2l6.6,2.2c1.8,0.6,3.1,2,3.5,3.8l0.9,3.6c0.1,0.2,0,0.5-0.1,0.7
	c-0.1,0.2-0.3,0.3-0.5,0.4C111,89.2,111,89.2,110.9,89.2z"/>
<path class="st0" d="M111.3,88.2l-0.9-3.6c-0.4-1.7-1.6-3-3.2-3.5l-6.7-2.2c-1.9-0.8-2.6-2.1-2.7-2.8c1.1-1,2.2-2.6,2.2-4
	c0-0.9,0.4-1.1,0.4-1.1c0.1,0,0.2-0.1,0.3-0.3c0-0.1,0.8-2,0.8-3.2c0,0,0-0.1,0-0.1c-0.1-0.3-0.3-0.8-0.7-1v-4.2
	c0-2.8-1-3.5-1.5-3.8c0-1.3-1.6-3.4-5.7-3.4c-4.5,0-7.2,4.2-7.2,7.2v4.2c-0.4,0.2-0.7,0.7-0.7,1c0,0,0,0.1,0,0.1
	c0,1.2,0.8,3.1,0.8,3.2c0,0.1,0.2,0.2,0.3,0.3c0,0,0.4,0.2,0.4,1.1c0,1.4,1.1,2.9,2.2,4c-0.1,0.7-0.9,2-2.7,2.7l-3.3,1.1
	c0.2,0.1,0.4,0.1,0.5,0.2c0.2,0.1,0.3,0.2,0.5,0.3l2.6-0.9c2.4-1,3.3-2.8,3.3-3.8c0-0.1-0.1-0.3-0.2-0.3c-1-0.9-2.1-2.3-2.1-3.4
	c0-1.2-0.5-1.6-0.8-1.8c-0.2-0.5-0.6-1.8-0.7-2.6c0-0.1,0.2-0.4,0.3-0.4c0.2,0,0.4-0.2,0.4-0.4v-4.5c0-2.3,2.1-6.3,6.3-6.3
	c3.7,0,4.7,1.7,4.8,2.5c0,0.1,0,0.2,0,0.3c0,0.3,0.2,0.4,0.4,0.5c0.3,0.2,1.2,0.7,1.2,3.1v4.5c0,0.2,0.2,0.4,0.4,0.4
	c0.2,0,0.3,0.3,0.3,0.4c0,0.9-0.5,2.2-0.7,2.6c-0.3,0.2-0.8,0.7-0.8,1.8c0,1.1-1.1,2.6-2.1,3.4c-0.1,0.1-0.2,0.2-0.2,0.3
	c0,0.9,0.9,2.8,3.3,3.8l6.7,2.2c1.3,0.4,2.3,1.5,2.7,2.9l0.9,3.6c0,0.2,0.2,0.3,0.4,0.3c0,0,0.1,0,0.1,0
	C111.2,88.7,111.4,88.4,111.3,88.2z"/>
<path class="st0" d="M108.3,92.5C108.3,92.5,108.3,92.5,108.3,92.5C108.3,92.5,108.3,92.5,108.3,92.5z"/>
<path class="st1" d="M110.7,88.1c-0.4,0-0.8-0.3-0.8-0.7l-0.9-3.6c-0.3-1.2-1.2-2.2-2.4-2.6L99.9,79c-2.7-1.1-3.6-3.1-3.6-4.2
	c0-0.3,0.1-0.5,0.3-0.7c0.9-0.8,1.9-2.1,1.9-3.1c0-1.2,0.5-1.8,0.9-2.1c0.2-0.5,0.5-1.5,0.6-2.3c0,0,0,0,0,0
	c-0.4-0.1-0.7-0.4-0.7-0.9v-4.5c0-2.1-0.7-2.6-1-2.8c-0.2-0.1-0.5-0.3-0.6-0.8c0-0.1,0-0.2,0-0.3c-0.2-0.7-1.2-2-4.4-2
	c-3.9,0-5.9,3.8-5.9,5.9v4.5c0,0.4-0.3,0.8-0.7,0.9c0,0,0,0,0,0c0,0.6,0.3,1.6,0.6,2.3c0.4,0.3,0.9,0.9,0.9,2.1c0,1,1,2.3,1.9,3.1
	c0.2,0.2,0.3,0.4,0.3,0.7c0,1.1-0.9,3.1-3.6,4.2l-4.8,1.6L82,80.3c-0.2-0.2-0.4-0.5-0.6-0.6l-0.6-0.5l5.4-1.8
	c1.5-0.6,2.1-1.6,2.3-2.2c-1.1-1-2.2-2.6-2.2-4.1c0-0.5-0.1-0.7-0.2-0.7c-0.2-0.1-0.4-0.3-0.5-0.5c-0.1-0.2-0.8-2.1-0.8-3.3
	c0-0.1,0-0.1,0-0.2c0.1-0.4,0.3-0.8,0.7-1.1v-3.9c0-3.2,2.9-7.7,7.7-7.7c4.2,0,5.9,2.1,6.1,3.6c0.7,0.5,1.5,1.5,1.5,4.1v3.9
	c0.4,0.3,0.6,0.8,0.7,1.1c0,0.1,0,0.1,0,0.2c0,1.3-0.7,3.1-0.8,3.3c-0.1,0.2-0.3,0.4-0.5,0.5c0,0-0.2,0.2-0.2,0.7
	c0,1.5-1.1,3.1-2.2,4.1c0.2,0.6,0.9,1.6,2.4,2.2l6.6,2.2c1.8,0.6,3.1,2,3.5,3.8l0.9,3.6c0.1,0.5-0.2,0.9-0.6,1.1
	C110.8,88.1,110.8,88.1,110.7,88.1z"/>
<path class="st1" d="M111.1,87.1l-0.9-3.6c-0.4-1.7-1.6-3-3.2-3.5l-6.7-2.2c-1.9-0.8-2.6-2.1-2.7-2.8c1.1-1,2.2-2.6,2.2-4
	c0-0.9,0.4-1.1,0.4-1.1c0.1,0,0.2-0.1,0.3-0.3c0-0.1,0.8-2,0.8-3.2c0,0,0-0.1,0-0.1c-0.1-0.3-0.3-0.8-0.7-1v-4.2
	c0-2.8-1-3.5-1.5-3.8c0-1.3-1.6-3.4-5.7-3.4c-4.5,0-7.2,4.2-7.2,7.2v4.2c-0.4,0.2-0.7,0.7-0.7,1c0,0,0,0.1,0,0.1
	c0,1.2,0.8,3.1,0.8,3.2c0,0.1,0.2,0.2,0.3,0.3c0,0,0.4,0.2,0.4,1.1c0,1.4,1.1,2.9,2.2,4c-0.1,0.7-0.9,2-2.7,2.7l-4.7,1.6
	c0.2,0.2,0.4,0.5,0.6,0.7l4.4-1.5c2.4-1,3.3-2.8,3.3-3.8c0-0.1-0.1-0.3-0.2-0.3c-1-0.9-2.1-2.3-2.1-3.4c0-1.2-0.5-1.6-0.8-1.8
	c-0.2-0.6-0.6-1.8-0.7-2.6c0-0.1,0.2-0.4,0.3-0.4c0.2,0,0.4-0.2,0.4-0.4v-4.5c0-2.3,2.1-6.3,6.3-6.3c3.7,0,4.7,1.7,4.8,2.5
	c0,0.1,0,0.2,0,0.3c0,0.3,0.2,0.4,0.4,0.5c0.3,0.2,1.2,0.7,1.2,3.1v4.5c0,0.2,0.2,0.4,0.4,0.4c0.2,0,0.3,0.3,0.3,0.4
	c0,0.9-0.5,2.2-0.7,2.6c-0.3,0.2-0.8,0.7-0.8,1.8c0,1.1-1.1,2.6-2.1,3.4c-0.1,0.1-0.2,0.2-0.2,0.3c0,0.9,0.9,2.8,3.3,3.8l6.7,2.2
	c1.3,0.4,2.3,1.5,2.7,2.9l0.9,3.6c0,0.2,0.2,0.3,0.4,0.3c0,0,0.1,0,0.1,0C111,87.6,111.2,87.3,111.1,87.1z"/>
<path class="st1" d="M107.8,90L107.8,90L107.8,90z"/>
<path class="st0" d="M15.6,89.2c-0.1,0-0.1,0-0.2,0c-0.5-0.1-0.8-0.6-0.6-1.1l0.9-3.6c0.4-1.8,1.8-3.2,3.5-3.8l6.7-2.2
	c1.5-0.6,2.1-1.6,2.3-2.2c-1.1-1-2.2-2.6-2.2-4.1c0-0.5-0.1-0.7-0.2-0.7c-0.2-0.1-0.4-0.3-0.5-0.5c-0.1-0.3-0.8-2.1-0.8-3.3
	c0-0.1,0-0.1,0-0.2c0.1-0.4,0.3-0.8,0.7-1.1v-3.9c0-3.2,2.9-7.7,7.7-7.7c4.2,0,5.9,2.1,6.1,3.6c0.7,0.5,1.5,1.5,1.5,4.1v3.9
	c0.4,0.3,0.6,0.8,0.7,1.1c0,0.1,0,0.1,0,0.2c0,1.3-0.7,3.1-0.8,3.3c-0.1,0.2-0.3,0.4-0.5,0.5c0,0-0.2,0.2-0.2,0.7
	c0,1.5-1.1,3.1-2.2,4.1c0.2,0.6,0.9,1.6,2.4,2.2l2.5,0.8l-1.2,0.4c-0.3,0.1-0.7,0.3-1,0.5l-0.2,0.1l-0.8-0.3
	c-2.7-1.1-3.6-3.1-3.6-4.2c0-0.3,0.1-0.5,0.3-0.7c0.9-0.8,1.9-2.1,1.9-3.1c0-1.2,0.5-1.8,0.9-2.1c0.2-0.5,0.5-1.5,0.6-2.3
	c0,0,0,0,0,0c-0.4-0.1-0.7-0.4-0.7-0.9v-4.5c0-2.1-0.7-2.6-1-2.8c-0.2-0.1-0.5-0.3-0.6-0.8c0-0.1,0-0.2,0-0.3c-0.2-0.7-1.2-2-4.4-2
	c-3.9,0-5.9,3.8-5.9,5.9v4.5c0,0.4-0.3,0.8-0.7,0.9c0,0,0,0,0,0c0,0.7,0.4,1.8,0.6,2.3c0.4,0.3,0.9,0.9,0.9,2.1c0,1,1,2.3,1.9,3.1
	c0.2,0.2,0.3,0.4,0.3,0.7c0,1.1-0.9,3.1-3.6,4.2l-6.7,2.3c-1.2,0.4-2.1,1.4-2.4,2.6l-0.9,3.6C16.3,88.9,16,89.2,15.6,89.2z"/>
<path class="st0" d="M40.2,79.9c0.3-0.2,0.7-0.4,1.1-0.6l-1.4-0.5c-1.9-0.8-2.6-2.1-2.7-2.8c1.1-1,2.2-2.6,2.2-4
	c0-0.9,0.4-1.1,0.4-1.1c0.1,0,0.2-0.1,0.3-0.3c0-0.1,0.8-2,0.8-3.2c0,0,0-0.1,0-0.1c-0.1-0.3-0.3-0.8-0.7-1v-4.2
	c0-2.8-1-3.5-1.5-3.8c0-1.3-1.6-3.4-5.7-3.4c-4.5,0-7.2,4.2-7.2,7.2v4.2c-0.4,0.2-0.7,0.7-0.7,1c0,0,0,0.1,0,0.1
	c0,1.2,0.8,3.1,0.8,3.2c0,0.1,0.2,0.2,0.3,0.3c0,0,0.4,0.2,0.4,1.1c0,1.4,1.1,2.9,2.2,4c-0.1,0.7-0.9,2-2.7,2.7l-6.7,2.2
	c-1.6,0.5-2.8,1.8-3.2,3.5l-0.9,3.6c-0.1,0.2,0.1,0.5,0.3,0.5c0.2,0.1,0.5-0.1,0.5-0.3l0.9-3.6c0.3-1.4,1.3-2.4,2.7-2.9l6.7-2.2
	c2.4-1,3.3-2.8,3.3-3.8c0-0.1-0.1-0.3-0.2-0.3c-1-0.9-2.1-2.3-2.1-3.4c0-1.2-0.5-1.6-0.8-1.8c-0.2-0.5-0.6-1.8-0.7-2.6
	c0-0.1,0.2-0.4,0.3-0.4c0.2,0,0.4-0.2,0.4-0.4v-4.5c0-2.3,2.1-6.3,6.3-6.3c3.7,0,4.7,1.7,4.8,2.5c0,0.1,0,0.2,0,0.3
	c0,0.3,0.2,0.4,0.4,0.5c0.3,0.2,1.2,0.7,1.2,3.1v4.5c0,0.2,0.2,0.4,0.4,0.4c0.2,0,0.3,0.3,0.3,0.4c0,0.9-0.5,2.2-0.7,2.6
	c-0.3,0.2-0.8,0.7-0.8,1.8c0,1.1-1.1,2.6-2.1,3.4c-0.1,0.1-0.2,0.2-0.2,0.3c0,0.9,0.9,2.8,3.3,3.8L40.2,79.9z"/>
<path class="st1" d="M14.8,88.1c-0.1,0-0.1,0-0.2,0c-0.5-0.1-0.8-0.6-0.6-1.1l0.9-3.6c0.4-1.8,1.8-3.2,3.5-3.8l6.7-2.2
	c1.5-0.6,2.1-1.6,2.3-2.2c-1.1-1-2.2-2.6-2.2-4.1c0-0.6-0.2-0.7-0.2-0.7c-0.2-0.1-0.4-0.3-0.5-0.5c-0.1-0.3-0.8-2.1-0.8-3.3
	c0-0.1,0-0.1,0-0.2c0.1-0.4,0.3-0.8,0.7-1.1v-3.9c0-3.2,2.9-7.7,7.7-7.7c4.2,0,5.9,2.1,6.1,3.6c0.7,0.5,1.5,1.5,1.5,4.1v3.9
	c0.4,0.3,0.6,0.8,0.7,1.1c0,0.1,0,0.1,0,0.2c0,1.2-0.7,3-0.8,3.3c-0.1,0.2-0.3,0.4-0.5,0.5c0,0-0.2,0.2-0.2,0.7
	c0,1.5-1.1,3.1-2.2,4.1c0.2,0.6,0.9,1.6,2.4,2.2l4.4,1.5L43,79.4c-0.2,0.2-0.5,0.4-0.7,0.6l-0.2,0.2L38.6,79
	c-2.7-1.1-3.6-3.1-3.6-4.2c0-0.3,0.1-0.5,0.3-0.7c0.9-0.8,1.9-2.1,1.9-3.1c0-1.2,0.5-1.8,0.9-2.1c0.2-0.5,0.5-1.5,0.6-2.3
	c0,0,0,0,0,0c-0.4-0.1-0.7-0.4-0.7-0.9v-4.5c0-2.1-0.7-2.6-1-2.8c-0.2-0.1-0.5-0.3-0.6-0.8c0-0.1,0-0.2,0-0.3c-0.2-0.7-1.2-2-4.4-2
	c-3.9,0-5.9,3.8-5.9,5.9v4.5c0,0.4-0.3,0.8-0.7,0.9c0,0,0,0,0,0c0,0.6,0.3,1.6,0.6,2.3c0.4,0.3,0.9,0.9,0.9,2.1c0,1,1,2.3,1.9,3.1
	c0.2,0.2,0.3,0.4,0.3,0.7c0,1.1-0.9,3.1-3.6,4.2l-6.7,2.3c-1.2,0.4-2.1,1.4-2.4,2.6l-0.9,3.6C15.5,87.8,15.2,88.1,14.8,88.1z"/>
<path class="st1" d="M42.7,79L39,77.8c-1.9-0.8-2.6-2.1-2.7-2.8c1.1-1,2.2-2.6,2.2-4c0-0.9,0.4-1.1,0.4-1.1c0.1,0,0.2-0.1,0.3-0.3
	c0-0.1,0.8-2,0.8-3.2c0,0,0-0.1,0-0.1c-0.1-0.3-0.3-0.8-0.7-1v-4.2c0-2.8-1-3.5-1.5-3.8c0-1.3-1.6-3.4-5.7-3.4
	c-4.5,0-7.2,4.2-7.2,7.2v4.2c-0.4,0.2-0.7,0.7-0.7,1c0,0,0,0.1,0,0.1c0,1.2,0.8,3.1,0.8,3.2c0,0.1,0.2,0.2,0.3,0.3
	c0,0,0.4,0.2,0.4,1.1c0,1.4,1.1,2.9,2.2,4c-0.1,0.7-0.9,2-2.7,2.7L18.5,80c-1.6,0.5-2.8,1.8-3.2,3.5l-0.9,3.6
	c-0.1,0.2,0.1,0.5,0.3,0.5c0.2,0.1,0.5-0.1,0.5-0.3l0.9-3.6c0.3-1.4,1.3-2.4,2.7-2.9l6.7-2.2c2.4-1,3.3-2.8,3.3-3.8
	c0-0.1-0.1-0.3-0.2-0.3c-1-0.9-2.1-2.3-2.1-3.4c0-1.2-0.5-1.6-0.8-1.8c-0.2-0.6-0.6-1.8-0.7-2.6c0-0.1,0.2-0.4,0.3-0.4
	c0.2,0,0.4-0.2,0.4-0.4v-4.5c0-2.3,2.1-6.3,6.3-6.3c3.7,0,4.7,1.7,4.8,2.5c0,0.1,0,0.2,0,0.3c0,0.3,0.2,0.4,0.4,0.5
	c0.3,0.2,1.2,0.7,1.2,3.1v4.5c0,0.2,0.2,0.4,0.4,0.4c0.2,0,0.3,0.3,0.3,0.4c0,0.9-0.5,2.2-0.7,2.6c-0.3,0.2-0.8,0.7-0.8,1.8
	c0,1.1-1.1,2.6-2.1,3.4c-0.1,0.1-0.2,0.2-0.2,0.3c0,0.9,0.9,2.8,3.3,3.8l3.3,1.1C42.2,79.4,42.4,79.2,42.7,79z"/>
<path class="st0" d="M103.7,110.7c-0.4,0-0.9-0.3-1-0.8l-2.1-8.3c-0.8-3.1-3.1-5.6-6.1-6.6l-15.3-5.1c-5.5-2.3-7.6-6.5-7.6-8.6
	c0-0.3,0.1-0.6,0.4-0.8c2.4-2,4.8-5.3,4.8-7.8c0-2.7,1.2-3.8,1.9-4.2c0.4-1,1.5-4.1,1.5-6c-0.1-0.3-0.4-0.9-0.7-0.9
	c-0.6,0-1-0.4-1-1V50.5c0-5.5-1.9-6.6-2.7-7.1c-0.4-0.2-0.8-0.5-0.9-1.1c0-0.2,0-0.4,0.1-0.6C75,40,72.7,36,64.2,36
	c-9.6,0-14.5,9.3-14.5,14.5v10.3c0,0.6-0.4,1-1,1c-0.4,0-0.6,0.6-0.7,0.9c0.1,2,1.1,5,1.5,6c0.7,0.4,1.9,1.5,1.9,4.2
	c0,2.5,2.4,5.9,4.8,7.8c0.2,0.2,0.4,0.5,0.4,0.8c0,2.1-2,6.3-7.5,8.6l-15.3,5.1c-3,1-5.3,3.5-6.1,6.6l-2.1,8.3
	c-0.1,0.5-0.7,0.9-1.2,0.7c-0.5-0.1-0.9-0.7-0.7-1.2l2.1-8.3c0.9-3.8,3.7-6.8,7.4-8l15.3-5.1c4.2-1.7,5.9-4.8,6.1-6.3
	c-2.6-2.3-5.1-5.9-5.1-9c0-2.1-1-2.5-1-2.5c-0.3-0.1-0.5-0.3-0.6-0.6c-0.1-0.2-1.8-4.5-1.8-7.2c0-0.1,0-0.2,0-0.2
	c0.2-0.7,0.7-1.8,1.7-2.3v-9.5C47.7,43.6,54,34,64.2,34c9.3,0,12.9,4.7,13,7.7c1.1,0.7,3.4,2.5,3.4,8.7v9.5c1,0.5,1.5,1.5,1.7,2.3
	c0,0.1,0,0.2,0,0.2c0,2.7-1.7,7.1-1.8,7.2c-0.1,0.3-0.4,0.5-0.7,0.6c0,0-1,0.4-1,2.5c0,3.2-2.5,6.7-5.1,9c0.3,1.5,2,4.5,6.2,6.3
	l15.2,5.1c3.7,1.2,6.5,4.2,7.4,8l2.1,8.3c0.1,0.5-0.2,1.1-0.7,1.2C103.9,110.7,103.8,110.7,103.7,110.7z M76.9,42.6
	C76.9,42.6,76.9,42.6,76.9,42.6C76.9,42.6,76.9,42.6,76.9,42.6z"/>
<path class="st2" d="M101.8,108.3c-0.4,0-0.9-0.3-1-0.8l-2.1-8.3c-0.8-3.1-3.1-5.6-6.1-6.6l-15.3-5.1c-5.5-2.3-7.6-6.5-7.6-8.6
	c0-0.3,0.1-0.6,0.4-0.8c2.4-2,4.8-5.3,4.8-7.8c0-2.7,1.2-3.8,1.9-4.2c0.4-1,1.5-4.1,1.5-6c-0.1-0.3-0.4-0.9-0.7-0.9
	c-0.6,0-1-0.4-1-1V48c0-5.5-1.9-6.6-2.7-7.1c-0.4-0.2-0.8-0.5-0.9-1.1c0-0.2,0-0.4,0.1-0.6c-0.2-1.7-2.5-5.6-11-5.6
	c-9.6,0-14.5,9.3-14.5,14.5v10.3c0,0.6-0.4,1-1,1c-0.4,0-0.6,0.6-0.7,0.9c0,1.8,1,4.7,1.5,6c0.7,0.4,1.9,1.5,1.9,4.2
	c0,2.5,2.4,5.9,4.8,7.8c0.2,0.2,0.4,0.5,0.4,0.8c0,2.1-2,6.3-7.5,8.6l-15.3,5.1c-3,1-5.3,3.5-6.1,6.6l-2.1,8.3
	c-0.1,0.5-0.7,0.9-1.2,0.7c-0.5-0.1-0.9-0.7-0.7-1.2l2.1-8.3c0.9-3.8,3.7-6.8,7.4-8l15.3-5.1c4.2-1.7,5.9-4.8,6.1-6.3
	c-2.6-2.3-5.1-5.9-5.1-9c0-2.1-1-2.5-1-2.5c-0.3-0.1-0.5-0.3-0.6-0.6c-0.1-0.2-1.8-4.5-1.8-7.2c0-0.1,0-0.2,0-0.2
	c0.2-0.7,0.7-1.8,1.7-2.3V48c0-6.9,6.3-16.5,16.5-16.5c9.3,0,12.9,4.7,13,7.7c1.1,0.7,3.4,2.5,3.4,8.7v9.5c1,0.5,1.5,1.5,1.7,2.3
	c0,0.1,0,0.2,0,0.2c0,2.7-1.7,7.1-1.8,7.2c-0.1,0.3-0.4,0.5-0.7,0.6c0,0-1,0.4-1,2.5c0,3.2-2.5,6.7-5.1,9c0.3,1.5,2,4.5,6.2,6.3
	l15.2,5.1c3.7,1.2,6.5,4.2,7.4,8l2.1,8.3c0.1,0.5-0.2,1.1-0.7,1.2C102,108.3,101.9,108.3,101.8,108.3z M75,40.2L75,40.2L75,40.2z"/>
</svg>
