<?xml version="1.0" encoding="utf-8"?>
<!-- Generator: Adobe Illustrator 26.0.0, SVG Export Plug-In . SVG Version: 6.00 Build 0)  -->
<svg version="1.1" id="Layer_1" xmlns="http://www.w3.org/2000/svg" xmlns:xlink="http://www.w3.org/1999/xlink" x="0px" y="0px"
	 width="125px" height="125px" viewBox="0 0 125 125" style="enable-background:new 0 0 125 125;" xml:space="preserve">
<style type="text/css">
	.st0{fill:none;stroke:#E3EAEC;stroke-width:2;stroke-linecap:round;stroke-linejoin:round;stroke-miterlimit:10;}
	.st1{fill:#E3EAEC;}
	.st2{fill:none;stroke:#45515B;stroke-width:2;stroke-linecap:round;stroke-linejoin:round;stroke-miterlimit:10;}
	.st3{fill:#45515B;}
	.st4{fill:#1080D0;}
</style>
<path class="st0" d="M39.5,63.6"/>
<path class="st1" d="M63.8,115.9c-27.8,0-50.4-22.6-50.4-50.3c0-27.8,22.6-50.4,50.4-50.4c27.8,0,50.3,22.6,50.3,50.4
	C114.2,93.3,91.6,115.9,63.8,115.9z M63.8,17.2c-26.7,0-48.4,21.7-48.4,48.4s21.7,48.3,48.4,48.3c26.7,0,48.3-21.7,48.3-48.3
	S90.5,17.2,63.8,17.2z"/>
<path class="st1" d="M65.4,33.1c-0.6,0-1-0.4-1-1v-6.4c0-0.6,0.4-1,1-1s1,0.4,1,1v6.4C66.4,32.7,66,33.1,65.4,33.1z"/>
<path class="st1" d="M30.4,64.9H24c-0.6,0-1-0.4-1-1c0-0.6,0.4-1,1-1h6.4c0.6,0,1,0.4,1,1C31.4,64.5,30.9,64.9,30.4,64.9z"/>
<path class="st1" d="M103.6,64.9h-6.4c-0.6,0-1-0.4-1-1c0-0.6,0.4-1,1-1h6.4c0.6,0,1,0.4,1,1C104.6,64.5,104.2,64.9,103.6,64.9z"/>
<path class="st1" d="M40.2,46.1c-0.3,0-0.5-0.1-0.7-0.3l-5-5c-0.4-0.4-0.4-1,0-1.4s1-0.4,1.4,0l5,5c0.4,0.4,0.4,1,0,1.4
	C40.7,46,40.4,46.1,40.2,46.1z"/>
<path class="st1" d="M92.5,88.8c-0.3,0-0.5-0.1-0.7-0.3L87,83.8c-0.4-0.4-0.4-1,0-1.4s1-0.4,1.4,0l4.8,4.8c0.4,0.4,0.4,1,0,1.4
	C93,88.7,92.7,88.8,92.5,88.8z"/>
<path class="st1" d="M85.9,44.5c-0.3,0-0.5-0.1-0.7-0.3c-0.4-0.4-0.4-1,0-1.4l5-5c0.4-0.4,1-0.4,1.4,0s0.4,1,0,1.4l-5,5
	C86.4,44.4,86.1,44.5,85.9,44.5z"/>
<path class="st1" d="M36.8,90.4c-0.3,0-0.5-0.1-0.7-0.3c-0.4-0.4-0.4-1,0-1.4l4.8-4.8c0.4-0.4,1-0.4,1.4,0s0.4,1,0,1.4l-4.8,4.8
	C37.3,90.3,37,90.4,36.8,90.4z"/>
<path class="st0" d="M63.6,97.2"/>
<path class="st0" d="M63.6,103.6"/>
<path class="st1" d="M68.6,61.8c-0.3,0-0.5-0.1-0.7-0.3c-0.4-0.4-0.4-1,0-1.4l9.6-9.6c0.4-0.4,1-0.4,1.4,0s0.4,1,0,1.4l-9.6,9.6
	C69.1,61.7,68.8,61.8,68.6,61.8z"/>
<path class="st1" d="M75,103.2H52.7c-2.4,0-4.2-1.9-4.2-4.4v-3c0-2.4,1.8-4.2,4.2-4.2H75c2.4,0,4.2,1.8,4.2,4.2v3
	C79.1,101.3,77.3,103.2,75,103.2z M52.7,93.6c-1.3,0-2.2,0.9-2.2,2.2v3c0,1.4,0.9,2.4,2.2,2.4H75c1.3,0,2.2-1,2.2-2.4v-3
	c0-1.3-0.9-2.2-2.2-2.2H52.7z"/>
<path class="st1" d="M63.8,72.9c-2,0-3.8-0.8-5.2-2.2c-1.4-1.4-2.2-3.2-2.2-5.2c0-2,0.8-3.8,2.2-5.2c1.4-1.4,3.2-2.2,5.2-2.2
	c2,0,3.8,0.8,5.2,2.2s2.2,3.2,2.2,5.2c0,2-0.8,3.8-2.2,5.2l0,0l0,0l0,0C67.6,72.1,65.8,72.9,63.8,72.9z M63.8,60.2
	c-1.4,0-2.8,0.6-3.8,1.6c-1,1-1.6,2.4-1.6,3.8s0.6,2.8,1.6,3.8s2.4,1.6,3.8,1.6c1.4,0,2.8-0.6,3.8-1.6l0,0c1-1,1.6-2.4,1.6-3.8
	s-0.6-2.8-1.6-3.8C66.6,60.7,65.3,60.2,63.8,60.2z"/>
<path class="st2" d="M37.5,61.6"/>
<path class="st3" d="M61.8,113.9c-27.8,0-50.4-22.6-50.4-50.4c0-27.8,22.6-50.3,50.4-50.3s50.4,22.6,50.4,50.3
	C112.2,91.3,89.6,113.9,61.8,113.9z M61.8,15.2c-26.7,0-48.4,21.7-48.4,48.3c0,26.7,21.7,48.4,48.4,48.4c26.7,0,48.4-21.7,48.4-48.4
	C110.2,36.9,88.5,15.2,61.8,15.2z"/>
<path class="st4" d="M63.4,31.1c-0.6,0-1-0.4-1-1v-6.4c0-0.6,0.4-1,1-1c0.6,0,1,0.4,1,1v6.4C64.4,30.7,64,31.1,63.4,31.1z"/>
<path class="st4" d="M28.4,62.9H22c-0.6,0-1-0.4-1-1s0.4-1,1-1h6.4c0.6,0,1,0.4,1,1S28.9,62.9,28.4,62.9z"/>
<path class="st4" d="M101.6,62.9h-6.4c-0.6,0-1-0.4-1-1s0.4-1,1-1h6.4c0.6,0,1,0.4,1,1S102.2,62.9,101.6,62.9z"/>
<path class="st4" d="M38.2,44.1c-0.3,0-0.5-0.1-0.7-0.3l-5-5c-0.4-0.4-0.4-1,0-1.4s1-0.4,1.4,0l5,5c0.4,0.4,0.4,1,0,1.4
	C38.7,44,38.4,44.1,38.2,44.1z"/>
<path class="st4" d="M90.5,86.8c-0.3,0-0.5-0.1-0.7-0.3L85,81.8c-0.4-0.4-0.4-1,0-1.4s1-0.4,1.4,0l4.8,4.8c0.4,0.4,0.4,1,0,1.4
	C91,86.7,90.7,86.8,90.5,86.8z"/>
<path class="st4" d="M83.9,42.5c-0.3,0-0.5-0.1-0.7-0.3c-0.4-0.4-0.4-1,0-1.4l5-5c0.4-0.4,1-0.4,1.4,0s0.4,1,0,1.4l-5,5
	C84.4,42.4,84.1,42.5,83.9,42.5z"/>
<path class="st4" d="M34.8,88.4c-0.3,0-0.5-0.1-0.7-0.3c-0.4-0.4-0.4-1,0-1.4l4.8-4.8c0.4-0.4,1-0.4,1.4,0s0.4,1,0,1.4l-4.8,4.8
	C35.3,88.3,35,88.4,34.8,88.4z"/>
<path class="st2" d="M61.6,95.2"/>
<path class="st2" d="M61.6,101.6"/>
<path class="st4" d="M66.6,59.8c-0.3,0-0.5-0.1-0.7-0.3c-0.4-0.4-0.4-1,0-1.4l9.6-9.6c0.4-0.4,1-0.4,1.4,0s0.4,1,0,1.4l-9.6,9.6
	C67.1,59.7,66.8,59.8,66.6,59.8z"/>
<path class="st3" d="M73,101.2H50.7c-2.4,0-4.2-1.9-4.2-4.4v-3c0-2.4,1.8-4.2,4.2-4.2H73c2.4,0,4.2,1.8,4.2,4.2v3
	C77.1,99.3,75.3,101.2,73,101.2z M50.7,91.6c-1.3,0-2.2,0.9-2.2,2.2v3c0,1.4,0.9,2.4,2.2,2.4H73c1.3,0,2.2-1,2.2-2.4v-3
	c0-1.3-0.9-2.2-2.2-2.2H50.7z"/>
<path class="st4" d="M61.8,70.9c-2,0-3.8-0.8-5.2-2.2c-1.4-1.4-2.2-3.2-2.2-5.2c0-2,0.8-3.8,2.2-5.2c1.4-1.4,3.2-2.2,5.2-2.2
	s3.8,0.8,5.2,2.2s2.2,3.2,2.2,5.2c0,2-0.8,3.8-2.2,5.2l0,0l0,0l0,0C65.6,70.1,63.8,70.9,61.8,70.9z M61.8,58.2
	c-1.4,0-2.8,0.6-3.8,1.6c-1,1-1.6,2.4-1.6,3.8c0,1.4,0.6,2.8,1.6,3.8s2.4,1.6,3.8,1.6c1.4,0,2.8-0.6,3.8-1.6l0,0
	c1-1,1.6-2.4,1.6-3.8c0-1.4-0.6-2.8-1.6-3.8C64.6,58.7,63.3,58.2,61.8,58.2z"/>
</svg>
