<?xml version="1.0" encoding="utf-8"?>
<!-- Generator: Adobe Illustrator 20.1.0, SVG Export Plug-In . SVG Version: 6.00 Build 0)  -->
<svg version="1.1" id="Layer_1" xmlns="http://www.w3.org/2000/svg" xmlns:xlink="http://www.w3.org/1999/xlink" x="0px" y="0px"
	 viewBox="0 0 125 125" style="enable-background:new 0 0 125 125;" xml:space="preserve">
<style type="text/css">
	.st0{fill:#E3EAEC;}
	.st1{fill:#45515B;}
	.st2{fill:#1080D0;}
</style>
<g>
	<g id="play_10_">
		<path class="st0" d="M108.7,106.2H17.6c-3.3,0-6-2.7-6-6V26.7c0-3.3,2.7-6,6-6h91.1c3.3,0,6,2.7,6,6v73.5
			C114.7,103.5,112,106.2,108.7,106.2z M17.6,22.7c-2.2,0-4,1.8-4,4v73.5c0,2.2,1.8,4,4,4h91.1c2.2,0,4-1.8,4-4V26.7
			c0-2.2-1.8-4-4-4H17.6z"/>
		<path class="st0" d="M52.2,84.2c-0.2,0-0.3,0-0.5-0.1c-0.3-0.2-0.5-0.5-0.5-0.9V43.7c0-0.4,0.2-0.7,0.5-0.9c0.3-0.2,0.7-0.2,1,0
			l30.8,19.8c0.3,0.2,0.5,0.5,0.5,0.8s-0.2,0.7-0.5,0.8L52.7,84.1C52.5,84.2,52.4,84.2,52.2,84.2z M53.2,45.5v35.9l27.9-17.9
			L53.2,45.5z"/>
	</g>
	<g id="play_9_">
		<path class="st1" d="M106.8,103.7H15.7c-3.3,0-6-2.7-6-6V24.3c0-3.3,2.7-6,6-6h91.1c3.3,0,6,2.7,6,6v73.5
			C112.8,101.1,110.1,103.7,106.8,103.7z M15.7,20.3c-2.2,0-4,1.8-4,4v73.5c0,2.2,1.8,4,4,4h91.1c2.2,0,4-1.8,4-4V24.3
			c0-2.2-1.8-4-4-4H15.7z"/>
		<path class="st2" d="M50.2,81.8c-0.2,0-0.3,0-0.5-0.1c-0.3-0.2-0.5-0.5-0.5-0.9V41.2c0-0.4,0.2-0.7,0.5-0.9c0.3-0.2,0.7-0.2,1,0
			l30.8,19.8c0.3,0.2,0.5,0.5,0.5,0.8s-0.2,0.7-0.5,0.8L50.8,81.6C50.6,81.7,50.4,81.8,50.2,81.8z M51.2,43.1v35.9L79.2,61
			L51.2,43.1z"/>
	</g>
</g>
</svg>
